<?xml version="1.0" encoding="utf-8"?>
<!-- Generator: Adobe Illustrator 18.1.1, SVG Export Plug-In . SVG Version: 6.00 Build 0)  -->
<svg version="1.1" id="Layer_1" xmlns="http://www.w3.org/2000/svg" xmlns:xlink="http://www.w3.org/1999/xlink" x="0px" y="0px"
	 viewBox="356 264 294 294" enable-background="new 356 264 294 294" xml:space="preserve">
<g id="Layer_2">
	<g>
		<g>
			<rect x="359" y="269" fill="none" width="287" height="287"/>
		</g>
	</g>
</g>
<g id="Layer_1_1_">
	<g>
		<path fill="#2C4049" d="M448.7,406.6c-3.3,0-6,2.7-6,6v83.7c0,3.3,2.7,6,6,6s6-2.7,6-6v-83.7C454.7,409.3,452,406.6,448.7,406.6z"
			/>
		<path fill="#2C4049" d="M448.7,370.7c3.3,0,6-2.7,6-6v-35.9c0-3.3-2.7-6-6-6s-6,2.7-6,6v35.9C442.7,368.1,445.4,370.7,448.7,370.7
			z"/>
		<path fill="#2C4049" d="M394.9,526.2h71.8h143.5c6.6,0,12-5.4,12-12V394.7c0-6.6-5.4-12-12-12H478.6v-71.8c0-6.6-5.4-12-12-12
			h-71.8c-6.6,0-12,5.4-12,12v203.3C382.9,520.9,388.3,526.2,394.9,526.2z M478.6,442.5h59.8v71.8h-59.8V442.5z M610.2,514.3h-59.8
			v-71.8h47.8c3.3,0,6-2.7,6-6s-2.7-6-6-6H478.6v-35.9h131.6L610.2,514.3z M394.9,310.9h71.8v71.8h-59.8c-3.3,0-6,2.7-6,6s2.7,6,6,6
			h59.8v119.6h-71.8V310.9z"/>
		<path fill="#2C4049" d="M520.5,454.5c-3.3,0-6,2.7-6,6v35.9c0,3.3,2.7,6,6,6s6-2.7,6-6v-35.9C526.5,457.1,523.8,454.5,520.5,454.5
			z"/>
		<path fill="#2C4049" d="M568.3,454.5c-3.3,0-6,2.7-6,6v35.9c0,3.3,2.7,6,6,6s6-2.7,6-6v-35.9C574.3,457.1,571.6,454.5,568.3,454.5
			z"/>
		<path fill="#2C4049" d="M520.5,418.6h47.8c3.3,0,6-2.7,6-6s-2.7-6-6-6h-47.8c-3.3,0-6,2.7-6,6S517.2,418.6,520.5,418.6z"/>
	</g>
</g>
</svg>
