<?xml version="1.0" encoding="utf-8"?>
<!-- Generator: Adobe Illustrator 18.1.1, SVG Export Plug-In . SVG Version: 6.00 Build 0)  -->
<svg version="1.1" id="Layer_1" xmlns="http://www.w3.org/2000/svg" xmlns:xlink="http://www.w3.org/1999/xlink" x="0px" y="0px"
	 viewBox="249 150 299 298" enable-background="new 249 150 299 298" xml:space="preserve">
<g id="Layer_2">
	<g>
		<g>
			<rect x="254.1" y="153.1" fill="none" width="290.9" height="290.9"/>
		</g>
	</g>
</g>
<g id="Layer_1_1_">
	<g>
		<path fill="#2C4049" d="M296.5,304.8h6.1v103c0,3.3,2.7,6.1,6.1,6.1h181.8c3.3,0,6.1-2.7,6.1-6.1v-103h6.1c3.3,0,6.1-2.7,6.1-6.1
			s-2.7-6.1-6.1-6.1h-42.4v-103c0-3.3-2.7-6.1-6.1-6.1H345c-3.3,0-6.1,2.7-6.1,6.1v90.9c0,3.3,2.7,6.1,6.1,6.1s6.1-2.7,6.1-6.1
			v-84.8h97v97h-24.2v-6.1c0-3.3-2.7-6.1-6.1-6.1s-6.1,2.7-6.1,6.1v6.1h-6.1v-27.3c0-1.7,1.4-3,3-3s3,1.4,3,3v3
			c0,3.3,2.7,6.1,6.1,6.1s6.1-2.7,6.1-6.1v-3c0-8.4-6.8-15.2-15.2-15.2s-15.2,6.8-15.2,15.2v27.3h-6.1v-6.1c0-3.3-2.7-6.1-6.1-6.1
			c-3.3,0-6.1,2.7-6.1,6.1v6.1h-78.8c-3.3,0-6.1,2.7-6.1,6.1S293.2,304.8,296.5,304.8z M484.4,401.8h-78.8v-66.7h48.5
			c3.3,0,6.1-2.7,6.1-6.1v-24.2h24.2V401.8z M351.1,304.8h97V323h-97V304.8z M339,304.8v24.2c0,3.3,2.7,6.1,6.1,6.1h48.5v66.7h-78.8
			v-97H339z"/>
		<path fill="#2C4049" d="M375.3,377.6c3.3,0,6.1-2.7,6.1-6.1v-12.1c0-3.3-2.7-6.1-6.1-6.1c-3.3,0-6.1,2.7-6.1,6.1v12.1
			C369.3,374.8,372,377.6,375.3,377.6z"/>
		<path fill="#2C4049" d="M423.8,353.3c-3.3,0-6.1,2.7-6.1,6.1v12.1c0,3.3,2.7,6.1,6.1,6.1s6.1-2.7,6.1-6.1v-12.1
			C429.9,356,427.2,353.3,423.8,353.3z"/>
	</g>
</g>
</svg>
